<?xml version="1.0" encoding="UTF-8"?>
<svg xmlns="http://www.w3.org/2000/svg" width="1308.4" height="760" viewBox="0 0 1308.4 760" role="img" aria-label="React Native benchmark line chart">
  <style>
    .bg { fill: #ffffff; }
    .title { font: 700 20px -apple-system, BlinkMacSystemFont, 'Segoe UI', sans-serif; fill: #111827; }
    .axis { font: 12px -apple-system, BlinkMacSystemFont, 'Segoe UI', sans-serif; fill: #374151; }
    .label { font: 11px -apple-system, BlinkMacSystemFont, 'Segoe UI', sans-serif; fill: #374151; }
    .legend { font: 12px -apple-system, BlinkMacSystemFont, 'Segoe UI', sans-serif; fill: #111827; }
    .note { font: 11px -apple-system, BlinkMacSystemFont, 'Segoe UI', sans-serif; fill: #6b7280; }
    .grid { stroke: #e5e7eb; stroke-width: 1; }
  </style>
  <rect class="bg" width="100%" height="100%" />
  <text class="title" x="80" y="44">React Native Benchmark (ops/sec by RN version)</text><text class="note" x="80" y="64">Generated from ./benchmarks/results/rn-version-benchmark.json</text><text class="label" text-anchor="middle" transform="translate(20,375) rotate(-90)">ops/sec</text><line class="grid" x1="80" y1="90" x2="1080" y2="90" /><text class="axis" x="70" y="94" text-anchor="end">21,767,722</text><line class="grid" x1="80" y1="204" x2="1080" y2="204" /><text class="axis" x="70" y="208" text-anchor="end">17,414,178</text><line class="grid" x1="80" y1="318" x2="1080" y2="318" /><text class="axis" x="70" y="322" text-anchor="end">13,060,633</text><line class="grid" x1="80" y1="432" x2="1080" y2="432" /><text class="axis" x="70" y="436" text-anchor="end">8,707,089</text><line class="grid" x1="80" y1="546" x2="1080" y2="546" /><text class="axis" x="70" y="550" text-anchor="end">4,353,544</text><line class="grid" x1="80" y1="660" x2="1080" y2="660" /><text class="axis" x="70" y="664" text-anchor="end">0</text><line stroke="#111827" stroke-width="1.5" x1="80" y1="660" x2="1080" y2="660" /><line stroke="#111827" stroke-width="1.5" x1="80" y1="90" x2="80" y2="660" /><text class="axis" x="80" y="684" text-anchor="middle">0.71</text><text class="axis" x="246.66666666666669" y="684" text-anchor="middle">0.72</text><text class="axis" x="413.33333333333337" y="684" text-anchor="middle">0.73</text><text class="axis" x="580" y="684" text-anchor="middle">0.74</text><text class="axis" x="746.6666666666667" y="684" text-anchor="middle">0.75</text><text class="axis" x="913.3333333333335" y="684" text-anchor="middle">0.76</text><text class="axis" x="1080" y="684" text-anchor="middle">0.77</text><polyline fill="none" stroke="#1f77b4" stroke-width="2.2" points="80,561.9938889333482 246.66666666666669,556.2055707988186 413.33333333333337,556.0233716693001 580,554.4882170031389 746.6666666666667,554.9531154431318 913.3333333333335,552.8446279312093 1080,558.068202083801" /><circle cx="80" cy="561.9938889333482" r="3" fill="#1f77b4" /><circle cx="246.66666666666669" cy="556.2055707988186" r="3" fill="#1f77b4" /><circle cx="413.33333333333337" cy="556.0233716693001" r="3" fill="#1f77b4" /><circle cx="580" cy="554.4882170031389" r="3" fill="#1f77b4" /><circle cx="746.6666666666667" cy="554.9531154431318" r="3" fill="#1f77b4" /><circle cx="913.3333333333335" cy="552.8446279312093" r="3" fill="#1f77b4" /><circle cx="1080" cy="558.068202083801" r="3" fill="#1f77b4" /><line x1="1100" y1="90" x2="1120" y2="90" stroke="#1f77b4" stroke-width="3" /><text class="legend" x="1128" y="94">v1()</text><polyline fill="none" stroke="#e4572e" stroke-width="2.2" points="80,651.4493409094438 246.66666666666669,651.3417968127303 413.33333333333337,651.1054197586684 580,650.8910385753732 746.6666666666667,650.9313381528852 913.3333333333335,651.1165748074144 1080,651.3745549488366" /><circle cx="80" cy="651.4493409094438" r="3" fill="#e4572e" /><circle cx="246.66666666666669" cy="651.3417968127303" r="3" fill="#e4572e" /><circle cx="413.33333333333337" cy="651.1054197586684" r="3" fill="#e4572e" /><circle cx="580" cy="650.8910385753732" r="3" fill="#e4572e" /><circle cx="746.6666666666667" cy="650.9313381528852" r="3" fill="#e4572e" /><circle cx="913.3333333333335" cy="651.1165748074144" r="3" fill="#e4572e" /><circle cx="1080" cy="651.3745549488366" r="3" fill="#e4572e" /><line x1="1100" y1="114" x2="1120" y2="114" stroke="#e4572e" stroke-width="3" /><text class="legend" x="1128" y="118">v3(name, DNS)</text><polyline fill="none" stroke="#17bebb" stroke-width="2.2" points="80,493.11866395574145 246.66666666666669,463.33481473164716 413.33333333333337,468.26623658644667 580,462.63566026798765 746.6666666666667,463.0192001717038 913.3333333333335,473.69109914211515 1080,470.94423385230664" /><circle cx="80" cy="493.11866395574145" r="3" fill="#17bebb" /><circle cx="246.66666666666669" cy="463.33481473164716" r="3" fill="#17bebb" /><circle cx="413.33333333333337" cy="468.26623658644667" r="3" fill="#17bebb" /><circle cx="580" cy="462.63566026798765" r="3" fill="#17bebb" /><circle cx="746.6666666666667" cy="463.0192001717038" r="3" fill="#17bebb" /><circle cx="913.3333333333335" cy="473.69109914211515" r="3" fill="#17bebb" /><circle cx="1080" cy="470.94423385230664" r="3" fill="#17bebb" /><line x1="1100" y1="138" x2="1120" y2="138" stroke="#17bebb" stroke-width="3" /><text class="legend" x="1128" y="142">v4()</text><polyline fill="none" stroke="#ffc914" stroke-width="2.2" points="80,651.6751651826498 246.66666666666669,651.5644788186839 413.33333333333337,651.4412233857084 580,653.7214619885351 746.6666666666667,651.3529518614764 913.3333333333335,651.6604750832448 1080,651.6192851966779" /><circle cx="80" cy="651.6751651826498" r="3" fill="#ffc914" /><circle cx="246.66666666666669" cy="651.5644788186839" r="3" fill="#ffc914" /><circle cx="413.33333333333337" cy="651.4412233857084" r="3" fill="#ffc914" /><circle cx="580" cy="653.7214619885351" r="3" fill="#ffc914" /><circle cx="746.6666666666667" cy="651.3529518614764" r="3" fill="#ffc914" /><circle cx="913.3333333333335" cy="651.6604750832448" r="3" fill="#ffc914" /><circle cx="1080" cy="651.6192851966779" r="3" fill="#ffc914" /><line x1="1100" y1="162" x2="1120" y2="162" stroke="#ffc914" stroke-width="3" /><text class="legend" x="1128" y="166">v5(name, DNS)</text><polyline fill="none" stroke="#6a4c93" stroke-width="2.2" points="80,109.44458542791017 246.66666666666669,91.52625157561272 413.33333333333337,91.36157058602646 580,90 746.6666666666667,90.30493085128523 913.3333333333335,131.01213898266428 1080,134.27789733808618" /><circle cx="80" cy="109.44458542791017" r="3" fill="#6a4c93" /><circle cx="246.66666666666669" cy="91.52625157561272" r="3" fill="#6a4c93" /><circle cx="413.33333333333337" cy="91.36157058602646" r="3" fill="#6a4c93" /><circle cx="580" cy="90" r="3" fill="#6a4c93" /><circle cx="746.6666666666667" cy="90.30493085128523" r="3" fill="#6a4c93" /><circle cx="913.3333333333335" cy="131.01213898266428" r="3" fill="#6a4c93" /><circle cx="1080" cy="134.27789733808618" r="3" fill="#6a4c93" /><line x1="1100" y1="186" x2="1120" y2="186" stroke="#6a4c93" stroke-width="3" /><text class="legend" x="1128" y="190">validate(sample)</text><polyline fill="none" stroke="#2e8540" stroke-width="2.2" points="80,622.4675815870856 246.66666666666669,622.1784406287438 413.33333333333337,620.874294976755 580,622.1103843571689 746.6666666666667,622.1956183563902 913.3333333333335,623.3736281637555 1080,622.7820963534907" /><circle cx="80" cy="622.4675815870856" r="3" fill="#2e8540" /><circle cx="246.66666666666669" cy="622.1784406287438" r="3" fill="#2e8540" /><circle cx="413.33333333333337" cy="620.874294976755" r="3" fill="#2e8540" /><circle cx="580" cy="622.1103843571689" r="3" fill="#2e8540" /><circle cx="746.6666666666667" cy="622.1956183563902" r="3" fill="#2e8540" /><circle cx="913.3333333333335" cy="623.3736281637555" r="3" fill="#2e8540" /><circle cx="1080" cy="622.7820963534907" r="3" fill="#2e8540" /><line x1="1100" y1="210" x2="1120" y2="210" stroke="#2e8540" stroke-width="3" /><text class="legend" x="1128" y="214">parse(sample)</text><polyline fill="none" stroke="#d7263d" stroke-width="2.2" points="80,626.2694369213278 246.66666666666669,626.4237222434208 413.33333333333337,625.1107782431253 580,625.5173876255861 746.6666666666667,625.9389751486168 913.3333333333335,626.4508242984728 1080,626.3693872055146" /><circle cx="80" cy="626.2694369213278" r="3" fill="#d7263d" /><circle cx="246.66666666666669" cy="626.4237222434208" r="3" fill="#d7263d" /><circle cx="413.33333333333337" cy="625.1107782431253" r="3" fill="#d7263d" /><circle cx="580" cy="625.5173876255861" r="3" fill="#d7263d" /><circle cx="746.6666666666667" cy="625.9389751486168" r="3" fill="#d7263d" /><circle cx="913.3333333333335" cy="626.4508242984728" r="3" fill="#d7263d" /><circle cx="1080" cy="626.3693872055146" r="3" fill="#d7263d" /><line x1="1100" y1="234" x2="1120" y2="234" stroke="#d7263d" stroke-width="3" /><text class="legend" x="1128" y="238">unparse(parse(sample))</text>
</svg>
