<?xml version="1.0" encoding="UTF-8"?>
<svg xmlns="http://www.w3.org/2000/svg" width="997.6" height="560" viewBox="0 0 997.6 560" role="img" aria-label="Security benchmark threshold utilization">
  <style>
    .bg { fill: #ffffff; }
    .title { font: 700 20px -apple-system, BlinkMacSystemFont, 'Segoe UI', sans-serif; fill: #111827; }
    .axis { font: 12px -apple-system, BlinkMacSystemFont, 'Segoe UI', sans-serif; fill: #374151; }
    .label { font: 11px -apple-system, BlinkMacSystemFont, 'Segoe UI', sans-serif; fill: #374151; }
    .legend { font: 12px -apple-system, BlinkMacSystemFont, 'Segoe UI', sans-serif; fill: #111827; }
    .note { font: 11px -apple-system, BlinkMacSystemFont, 'Segoe UI', sans-serif; fill: #6b7280; }
    .grid { stroke: #e5e7eb; stroke-width: 1; }
  </style>
  <rect class="bg" width="100%" height="100%" />
  <text class="title" x="230.4" y="44">Security Benchmark Threshold Utilization</text><text class="note" x="230.4" y="64">Generated from ./benchmarks/results/security-benchmark.json</text><line stroke="#111827" stroke-width="1.5" x1="230.4" y1="450" x2="858.4" y2="450" /><line class="grid" x1="230.4" y1="70" x2="230.4" y2="450" /><text class="axis" x="230.4" y="472" text-anchor="middle">0%</text><line class="grid" x1="356" y1="70" x2="356" y2="450" /><text class="axis" x="356" y="472" text-anchor="middle">20%</text><line class="grid" x1="481.6" y1="70" x2="481.6" y2="450" /><text class="axis" x="481.6" y="472" text-anchor="middle">40%</text><line class="grid" x1="607.2" y1="70" x2="607.2" y2="450" /><text class="axis" x="607.2" y="472" text-anchor="middle">60%</text><line class="grid" x1="732.8" y1="70" x2="732.8" y2="450" /><text class="axis" x="732.8" y="472" text-anchor="middle">80%</text><line class="grid" x1="858.4" y1="70" x2="858.4" y2="450" /><text class="axis" x="858.4" y="472" text-anchor="middle">100%</text><text class="label" x="218.4" y="114" text-anchor="end">No v4 collisions in sample</text><rect x="230.4" y="98" width="628" height="20" fill="#f3f4f6" /><rect x="230.4" y="98" width="0" height="20" fill="#1f9d55" /><text class="label" x="985.6" y="113" text-anchor="end">0 / 0</text><text class="label" x="218.4" y="174" text-anchor="end">No cross-batch overlap</text><rect x="230.4" y="158" width="628" height="20" fill="#f3f4f6" /><rect x="230.4" y="158" width="0" height="20" fill="#1f9d55" /><text class="label" x="985.6" y="173" text-anchor="end">0 / 0</text><text class="label" x="218.4" y="234" text-anchor="end">Monobit z-score within bound</text><rect x="230.4" y="218" width="628" height="20" fill="#f3f4f6" /><rect x="230.4" y="218" width="3.5953" height="20" fill="#1f9d55" /><text class="label" x="985.6" y="233" text-anchor="end">0.0229 / 4</text><text class="label" x="218.4" y="294" text-anchor="end">Runs z-score within bound</text><rect x="230.4" y="278" width="628" height="20" fill="#f3f4f6" /><rect x="230.4" y="278" width="263.49309999999997" height="20" fill="#1f9d55" /><text class="label" x="985.6" y="293" text-anchor="end">1.6783 / 4</text><text class="label" x="218.4" y="354" text-anchor="end">RNG chi-square within bound</text><rect x="230.4" y="338" width="628" height="20" fill="#f3f4f6" /><rect x="230.4" y="338" width="404.7092171428571" height="20" fill="#1f9d55" /><text class="label" x="985.6" y="353" text-anchor="end">270.6654 / 420</text><text class="label" x="218.4" y="414" text-anchor="end">Malformed input crash count</text><rect x="230.4" y="398" width="628" height="20" fill="#f3f4f6" /><rect x="230.4" y="398" width="0" height="20" fill="#1f9d55" /><text class="label" x="985.6" y="413" text-anchor="end">0 / 0</text>
</svg>
