<?xml version="1.0" encoding="UTF-8"?>
<svg xmlns="http://www.w3.org/2000/svg" width="900" height="420" viewBox="0 0 900 420" role="img" aria-label="Test results bar chart">
  <style>
    .bg { fill: #ffffff; }
    .title { font: 700 20px -apple-system, BlinkMacSystemFont, 'Segoe UI', sans-serif; fill: #111827; }
    .axis { font: 12px -apple-system, BlinkMacSystemFont, 'Segoe UI', sans-serif; fill: #374151; }
    .label { font: 11px -apple-system, BlinkMacSystemFont, 'Segoe UI', sans-serif; fill: #374151; }
    .legend { font: 12px -apple-system, BlinkMacSystemFont, 'Segoe UI', sans-serif; fill: #111827; }
    .note { font: 11px -apple-system, BlinkMacSystemFont, 'Segoe UI', sans-serif; fill: #6b7280; }
    .grid { stroke: #e5e7eb; stroke-width: 1; }
  </style>
  <rect class="bg" width="100%" height="100%" />
  <text class="title" x="90" y="44">Test Result Summary</text><text class="note" x="90" y="64">Generated from ./benchmarks/results/test-results.json</text><line class="grid" x1="90" y1="90" x2="840" y2="90" /><text class="axis" x="80" y="94" text-anchor="end">222</text><line class="grid" x1="90" y1="152.5" x2="840" y2="152.5" /><text class="axis" x="80" y="156.5" text-anchor="end">167</text><line class="grid" x1="90" y1="215" x2="840" y2="215" /><text class="axis" x="80" y="219" text-anchor="end">111</text><line class="grid" x1="90" y1="277.5" x2="840" y2="277.5" /><text class="axis" x="80" y="281.5" text-anchor="end">56</text><line class="grid" x1="90" y1="340" x2="840" y2="340" /><text class="axis" x="80" y="344" text-anchor="end">0</text><line stroke="#111827" stroke-width="1.5" x1="90" y1="340" x2="840" y2="340" /><rect x="105" y="90" width="157.5" height="250" fill="#1f9d55" /><text class="axis" x="183.75" y="362" text-anchor="middle">Passed</text><text class="label" x="183.75" y="82" text-anchor="middle">222</text><rect x="292.5" y="340" width="157.5" height="0" fill="#d7263d" /><text class="axis" x="371.25" y="362" text-anchor="middle">Failed</text><text class="label" x="371.25" y="332" text-anchor="middle">0</text><rect x="480" y="340" width="157.5" height="0" fill="#f59e0b" /><text class="axis" x="558.75" y="362" text-anchor="middle">Pending</text><text class="label" x="558.75" y="332" text-anchor="middle">0</text><rect x="667.5" y="340" width="157.5" height="0" fill="#6366f1" /><text class="axis" x="746.25" y="362" text-anchor="middle">Todo</text><text class="label" x="746.25" y="332" text-anchor="middle">0</text>
</svg>
